ffmpeg version git-2015-03-31-c84b75c Copyright (c) 2000-2015 the FFmpeg developers
  built with gcc 4.4.5 (Debian 4.4.5-8)
  configuration: --enable-shared --enable-libx264 --enable-gpl
  libavutil      54. 21.100 / 54. 21.100
  libavcodec     56. 32.100 / 56. 32.100
  libavformat    56. 27.100 / 56. 27.100
  libavdevice    56.  4.100 / 56.  4.100
  libavfilter     5. 13.101 /  5. 13.101
  libswscale      3.  1.101 /  3.  1.101
  libswresample   1.  1.100 /  1.  1.100
  libpostproc    53.  3.100 / 53.  3.100
Input #0, matroska,webm, from '/var/www/mediamsg/tmp/test.webm':
  Metadata:
    encoder         : whammy
  Duration: 00:00:06.10, start: 0.000000, bitrate: 363 kb/s
    Stream #0:0: Video: vp8, yuv420p, 320x240, SAR 1:1 DAR 4:3, 1k tbr, 1k tbn, 1k tbc (default)
[mp3 @ 0x17cd700] Estimating duration from bitrate, this may be inaccurate
Input #1, mp3, from '/var/www/mediamsg/tmp/audioMsg.mp3':
  Duration: 00:00:13.32, start: 0.000000, bitrate: 32 kb/s
    Stream #1:0: Audio: mp3, 48000 Hz, mono, s16p, 32 kb/s
[libx264 @ 0x17ec9c0] using SAR=1/1
[libx264 @ 0x17ec9c0] using cpu capabilities: none!
[libx264 @ 0x17ec9c0] profile High, level 1.3
[libx264 @ 0x17ec9c0] 264 - core 146 r2538 121396c - H.264/MPEG-4 AVC codec - Copyleft 2003-2015 - http://www.videolan.org/x264.html - options: cabac=1 ref=3 deblock=1:0:0 analyse=0x3:0x113 me=hex subme=7 psy=1 psy_rd=1.00:0.00 mixed_ref=1 me_range=16 chroma_me=1 trellis=1 8x8dct=1 cqm=0 deadzone=21,11 fast_pskip=1 chroma_qp_offset=-2 threads=1 lookahead_threads=1 sliced_threads=0 nr=0 decimate=1 interlaced=0 bluray_compat=0 constrained_intra=0 bframes=3 b_pyramid=2 b_adapt=1 b_bias=0 direct=1 weightb=1 open_gop=0 weightp=2 keyint=250 keyint_min=25 scenecut=40 intra_refresh=0 rc_lookahead=40 rc=crf mbtree=1 crf=23.0 qcomp=0.60 qpmin=0 qpmax=69 qpstep=4 ip_ratio=1.40 aq=1:1.00
Output #0, mp4, to '/var/www/mediamsg/tmp/outtest.mp4':
  Metadata:
    encoder         : Lavf56.27.100
    Stream #0:0: Video: h264 (libx264) ([33][0][0][0] / 0x0021), yuv420p, 320x240 [SAR 1:1 DAR 4:3], q=-1--1, 25 fps, 12800 tbn, 25 tbc (default)
    Metadata:
      encoder         : Lavc56.32.100 libx264
    Stream #0:1: Audio: aac ([64][0][0][0] / 0x0040), 48000 Hz, mono, fltp, 128 kb/s
    Metadata:
      encoder         : Lavc56.32.100 aac
Stream mapping:
  Stream #0:0 -> #0:0 (vp8 (native) -> h264 (libx264))
  Stream #1:0 -> #0:1 (mp3 (native) -> aac (native))
Press [q] to stop, [?] for help
frame=   44 fps=0.0 q=28.0 size=       0kB time=00:00:00.04 bitrate=   9.6kbits/s    frame=   47 fps= 41 q=28.0 size=       7kB time=00:00:00.16 bitrate= 345.1kbits/s    frame=   51 fps= 31 q=28.0 size=      11kB time=00:00:00.32 bitrate= 278.1kbits/s    frame=   55 fps= 24 q=28.0 size=      14kB time=00:00:00.48 bitrate= 242.3kbits/s    frame=   60 fps= 21 q=28.0 size=      19kB time=00:00:00.68 bitrate= 227.2kbits/s    frame=   64 fps= 19 q=28.0 size=      24kB time=00:00:00.84 bitrate= 231.9kbits/s    frame=   68 fps= 17 q=28.0 size=      29kB time=00:00:01.00 bitrate= 233.6kbits/s    frame=   71 fps= 16 q=28.0 size=      33kB time=00:00:01.12 bitrate= 241.9kbits/s    frame=   75 fps= 15 q=28.0 size=      37kB time=00:00:01.28 bitrate= 238.9kbits/s    frame=   79 fps= 14 q=28.0 size=      42kB time=00:00:01.44 bitrate= 236.3kbits/s    frame=   83 fps= 13 q=28.0 size=      46kB time=00:00:01.60 bitrate= 237.1kbits/s    frame=   89 fps= 13 q=28.0 size=      52kB time=00:00:01.84 bitrate= 230.0kbits/s    frame=   94 fps= 12 q=28.0 size=      57kB time=00:00:02.04 bitrate= 229.4kbits/s    frame=   97 fps= 11 q=28.0 size=      62kB time=00:00:02.16 bitrate= 237.0kbits/s    frame=  102 fps= 11 q=28.0 size=      68kB time=00:00:02.36 bitrate= 237.6kbits/s    frame=  105 fps= 11 q=28.0 size=      74kB time=00:00:02.48 bitrate= 243.9kbits/s    frame=  110 fps= 11 q=28.0 size=      79kB time=00:00:02.68 bitrate= 242.9kbits/s    frame=  114 fps= 11 q=28.0 size=      85kB time=00:00:02.84 bitrate= 245.0kbits/s    frame=  119 fps= 10 q=28.0 size=      88kB time=00:00:03.04 bitrate= 237.8kbits/s    frame=  123 fps= 10 q=28.0 size=      95kB time=00:00:03.20 bitrate= 244.3kbits/s    frame=  128 fps= 10 q=28.0 size=     100kB time=00:00:03.40 bitrate= 240.7kbits/s    frame=  133 fps= 10 q=28.0 size=     105kB time=00:00:03.60 bitrate= 239.9kbits/s    frame=  138 fps=9.9 q=28.0 size=     112kB time=00:00:03.80 bitrate= 241.3kbits/s    frame=  142 fps=9.8 q=28.0 size=     115kB time=00:00:03.96 bitrate= 238.9kbits/s    frame=  147 fps=9.8 q=28.0 size=     121kB time=00:00:04.16 bitrate= 238.9kbits/s    frame=  152 fps=9.7 q=28.0 size=     126kB time=00:00:04.36 bitrate= 237.0kbits/s    frame=  153 fps=9.5 q=28.0 size=     130kB time=00:00:08.02 bitrate= 132.7kbits/s    [mp3 @ 0x17afac0] incomplete frame
Error while decoding stream #1:0: Invalid data found when processing input
frame=  153 fps=7.4 q=28.0 Lsize=     292kB time=00:00:13.31 bitrate= 179.4kbits/s    
video:77kB audio:208kB subtitle:0kB other streams:0kB global headers:0kB muxing overhead: 2.380748%
[libx264 @ 0x17ec9c0] frame I:1     Avg QP:19.87  size:  1194
[libx264 @ 0x17ec9c0] frame P:95    Avg QP:20.20  size:   724
[libx264 @ 0x17ec9c0] frame B:57    Avg QP:19.70  size:   144
[libx264 @ 0x17ec9c0] consecutive B-frames: 46.4% 10.5%  3.9% 39.2%
[libx264 @ 0x17ec9c0] mb I  I16..4: 31.3% 67.0%  1.7%
[libx264 @ 0x17ec9c0] mb P  I16..4:  5.9% 12.1%  0.5%  P16..4: 28.2%  6.3%  2.5%  0.0%  0.0%    skip:44.4%
[libx264 @ 0x17ec9c0] mb B  I16..4:  0.9%  1.0%  0.0%  B16..8: 14.8%  0.5%  0.0%  direct: 5.1%  skip:77.6%  L0:56.9% L1:40.9% BI: 2.2%
[libx264 @ 0x17ec9c0] 8x8 transform intra:65.0% inter:83.9%
[libx264 @ 0x17ec9c0] coded y,uvDC,uvAC intra: 17.6% 49.2% 19.3% inter: 7.4% 22.1% 0.8%
[libx264 @ 0x17ec9c0] i16 v,h,dc,p: 45% 37% 14%  4%
[libx264 @ 0x17ec9c0] i8 v,h,dc,ddl,ddr,vr,hd,vl,hu: 15% 17% 57%  1%  3%  2%  3%  1%  2%
[libx264 @ 0x17ec9c0] i4 v,h,dc,ddl,ddr,vr,hd,vl,hu: 18% 19% 32%  3%  8%  7%  7%  2%  3%
[libx264 @ 0x17ec9c0] i8c dc,h,v,p: 57% 22% 19%  2%
[libx264 @ 0x17ec9c0] Weighted P-Frames: Y:16.8% UV:14.7%
[libx264 @ 0x17ec9c0] ref P L0: 64.2%  7.0% 14.9% 11.7%  2.3%
[libx264 @ 0x17ec9c0] ref B L0: 89.2%  8.6%  2.3%
[libx264 @ 0x17ec9c0] ref B L1: 93.4%  6.6%
[libx264 @ 0x17ec9c0] kb/s:102.18
